<?xml version="1.0" encoding="utf-8"?>
<!-- Generator: Adobe Illustrator 16.1.0, SVG Export Plug-In . SVG Version: 6.00 Build 0)  -->
<!DOCTYPE svg PUBLIC "-//W3C//DTD SVG 1.1//EN" "http://www.w3.org/Graphics/SVG/1.1/DTD/svg11.dtd">
<svg version="1.1" xmlns="http://www.w3.org/2000/svg" xmlns:xlink="http://www.w3.org/1999/xlink" x="0px" y="0px" width="792px"
	 height="612px" viewBox="0 0 792 612" enable-background="new 0 0 792 612" xml:space="preserve">
<g id="Layer_3_copy_3">
	<path fill="#002D62" stroke="#C4960C" stroke-width="3.6" stroke-miterlimit="10" d="M396,525.602
		c-121.088,0-219.6-98.513-219.6-219.602c0-121.088,98.512-219.6,219.6-219.6c121.089,0,219.602,98.512,219.602,219.6
		C615.602,427.089,517.089,525.602,396,525.602z"/>
	<circle fill="none" cx="396" cy="306" r="180"/>
	<text transform="matrix(-0.8296 -0.5584 0.5584 -0.8296 304.106 461.1348)"><tspan x="0" y="0" fill="#C4960C" font-family="'TrajanPro-Bold'" font-size="32.4">E</tspan><tspan x="19.779" y="-0.26" fill="#C4960C" font-family="'TrajanPro-Bold'" font-size="32.4" rotate="7.329">n</tspan><tspan x="46.087" y="3.14" fill="#C4960C" font-family="'TrajanPro-Bold'" font-size="32.4" rotate="15.411">g</tspan><tspan x="69.902" y="9.998" fill="#C4960C" font-family="'TrajanPro-Bold'" font-size="32.4" rotate="21.335">i</tspan><tspan x="81.807" y="14.204" fill="#C4960C" font-family="'TrajanPro-Bold'" font-size="32.4" rotate="27.575">n</tspan><tspan x="105.264" y="26.706" fill="#C4960C" font-family="'TrajanPro-Bold'" font-size="32.4" rotate="34.699">e</tspan><tspan x="120.162" y="36.987" fill="#C4960C" font-family="'TrajanPro-Bold'" font-size="32.4" rotate="40.5">e</tspan><tspan x="133.991" y="48.628" fill="#C4960C" font-family="'TrajanPro-Bold'" font-size="32.4" rotate="46.849">r</tspan><tspan x="148.693" y="64.591" fill="#C4960C" font-family="'TrajanPro-Bold'" font-size="32.4" rotate="52.303">i</tspan><tspan x="156.73" y="74.326" fill="#C4960C" font-family="'TrajanPro-Bold'" font-size="32.4" rotate="58.447">n</tspan><tspan x="170.586" y="96.904" fill="#C4960C" font-family="'TrajanPro-Bold'" font-size="32.4" rotate="66.542">g</tspan><tspan x="180.154" y="119.824" fill="#C4960C" font-family="'TrajanPro-Bold'" font-size="32.4" rotate="71.993"> </tspan><tspan x="183.254" y="128.589" fill="#C4960C" font-family="'TrajanPro-Bold'" font-size="32.4" rotate="76.695">a</tspan><tspan x="188.061" y="147.773" fill="#C4960C" font-family="'TrajanPro-Bold'" font-size="32.4" rotate="84.09">n</tspan><tspan x="190.83" y="174.118" fill="#C4960C" font-family="'TrajanPro-Bold'" font-size="32.4" rotate="92.449">d</tspan><tspan x="189.309" y="200.439" fill="#C4960C" font-family="'TrajanPro-Bold'" font-size="32.4" rotate="98.077"> </tspan><tspan x="188.417" y="209.647" fill="#C4960C" font-family="'TrajanPro-Bold'" font-size="32.4" rotate="103.552">C</tspan><tspan x="182.606" y="234.121" fill="#C4960C" font-family="'TrajanPro-Bold'" font-size="32.4" rotate="111.646">o</tspan><tspan x="173.171" y="258.381" fill="#C4960C" font-family="'TrajanPro-Bold'" font-size="32.4" rotate="120.415">m</tspan><tspan x="158.147" y="283.376" fill="#C4960C" font-family="'TrajanPro-Bold'" font-size="32.4" rotate="128.056">p</tspan><tspan x="146.791" y="298.2" fill="#C4960C" font-family="'TrajanPro-Bold'" font-size="32.4" rotate="134.883">u</tspan><tspan x="129.808" y="315.126" fill="#C4960C" font-family="'TrajanPro-Bold'" font-size="32.4" rotate="141.851">t</tspan><tspan x="114.128" y="327.418" fill="#C4960C" font-family="'TrajanPro-Bold'" font-size="32.4" rotate="147.801">e</tspan><tspan x="98.892" y="337.168" fill="#C4960C" font-family="'TrajanPro-Bold'" font-size="32.4" rotate="154.077">r</tspan><tspan x="79.22" y="346.454" fill="#C4960C" font-family="'TrajanPro-Bold'" font-size="32.4" rotate="159.031"> </tspan><tspan x="70.632" y="349.954" fill="#C4960C" font-family="'TrajanPro-Bold'" font-size="32.4" rotate="163.465">S</tspan><tspan x="53.16" y="355.292" fill="#C4960C" font-family="'TrajanPro-Bold'" font-size="32.4" rotate="169.951">c</tspan><tspan x="31.166" y="358.977" fill="#C4960C" font-family="'TrajanPro-Bold'" font-size="32.4" rotate="175.532">i</tspan><tspan x="18.508" y="360.103" fill="#C4960C" font-family="'TrajanPro-Bold'" font-size="32.4" rotate="-179.559">e</tspan><tspan x="0.483" y="360.268" fill="#C4960C" font-family="'TrajanPro-Bold'" font-size="32.4" rotate="-172.5">n</tspan><tspan x="-25.807" y="356.707" fill="#C4960C" font-family="'TrajanPro-Bold'" font-size="32.4" rotate="-164.813">c</tspan><tspan x="-47.256" y="350.799" fill="#C4960C" font-family="'TrajanPro-Bold'" font-size="32.4" rotate="-158.428">e</tspan><tspan x="-64.157" y="343.951" fill="#C4960C" font-family="'TrajanPro-Bold'" font-size="32.4" rotate="-154.051"> </tspan><tspan x="-72.607" y="339.943" fill="#C4960C" font-family="'TrajanPro-Bold'" font-size="32.4" rotate="-150.283">I</tspan><tspan x="-85.006" y="333.318" fill="#C4960C" font-family="'TrajanPro-Bold'" font-size="32.4" rotate="-143.78">n</tspan><tspan x="-106.324" y="317.488" fill="#C4960C" font-family="'TrajanPro-Bold'" font-size="32.4" rotate="-136.351">t</tspan><tspan x="-120.729" y="303.72" fill="#C4960C" font-family="'TrajanPro-Bold'" font-size="32.4" rotate="-130.293">e</tspan><tspan x="-132.343" y="289.981" fill="#C4960C" font-family="'TrajanPro-Bold'" font-size="32.4" rotate="-124.874">r</tspan><tspan x="-144.576" y="272.056" fill="#C4960C" font-family="'TrajanPro-Bold'" font-size="32.4" rotate="-117.807">e</tspan><tspan x="-153.037" y="256.008" fill="#C4960C" font-family="'TrajanPro-Bold'" font-size="32.4" rotate="-112.212">s</tspan><tspan x="-159.531" y="240.389" fill="#C4960C" font-family="'TrajanPro-Bold'" font-size="32.4" rotate="-106.313">t</tspan><tspan x="-164.969" y="221.084" fill="#C4960C" font-family="'TrajanPro-Bold'" font-size="32.4" rotate="-101.611"> </tspan><tspan x="-167.33" y="212.184" fill="#C4960C" font-family="'TrajanPro-Bold'" font-size="32.4" rotate="-95.65">G</tspan><tspan x="-169.911" y="184.351" fill="#C4960C" font-family="'TrajanPro-Bold'" font-size="32.4" rotate="-87.798">r</tspan><tspan x="-169.278" y="162.824" fill="#C4960C" font-family="'TrajanPro-Bold'" font-size="32.4" rotate="-80.268">o</tspan><tspan x="-164.848" y="137.137" fill="#C4960C" font-family="'TrajanPro-Bold'" font-size="32.4" rotate="-72.375">u</tspan><tspan x="-157.471" y="114.307" fill="#C4960C" font-family="'TrajanPro-Bold'" font-size="32.4" rotate="-65.607">p</tspan></text>
	<path fill="#1D437D" stroke="#C4960C" stroke-width="3.6" stroke-miterlimit="10" d="M396,475.201
		c-93.297,0-169.2-75.903-169.2-169.201c0-93.297,75.903-169.2,169.2-169.2c93.298,0,169.201,75.903,169.201,169.2
		C565.201,399.298,489.298,475.201,396,475.201z"/>
	<path fill="none" d="M396,518.035c115.134,0,208.8-93.666,208.8-208.798c0-115.126-93.666-208.793-208.8-208.793
		c-115.132,0-208.799,93.667-208.799,208.793C187.201,424.369,280.868,518.035,396,518.035z"/>
	<text transform="matrix(0.9136 0.4066 -0.4066 0.9136 304.7051 497.1504)"><tspan x="0" y="0" fill="#C4960C" font-family="'CloisterBlack-Light'" font-size="41.7601">•</tspan><tspan x="16.418" y="0.125" fill="#C4960C" font-family="'PlainGermanica'" font-size="41.7601" rotate="-5.725"> </tspan><tspan x="41.834" y="-2.511" fill="#C4960C" font-family="'TrajanPro-Bold'" font-size="41.7601" rotate="-13.037">2</tspan><tspan x="68.509" y="-8.852" fill="#C4960C" font-family="'TrajanPro-Bold'" font-size="41.7601" rotate="-20.568">0</tspan><tspan x="94.116" y="-18.623" fill="#C4960C" font-family="'TrajanPro-Bold'" font-size="41.7601" rotate="-28.004">1</tspan><tspan x="118.246" y="-31.628" fill="#C4960C" font-family="'TrajanPro-Bold'" font-size="41.7601" rotate="-35.54">2</tspan><tspan x="140.379" y="-47.689" fill="#C4960C" font-family="'PlainGermanica'" font-size="41.7601" rotate="-42.855"> </tspan><tspan x="158.53" y="-64.946" fill="#C4960C" font-family="'CloisterBlack-Light'" font-size="41.7601" rotate="-48.578">•</tspan></text>
	<path fill="#C4960C" d="M483.046,232.936c3.373-0.685,6.05-3.26,6.903-6.569h53.747v-4.5h-53.747
		c-1.001-3.88-4.513-6.75-8.705-6.75s-7.704,2.87-8.705,6.75h-35.948c-1.046-5.128-5.591-9-11.023-9
		c-4.001,0-7.511,2.105-9.506,5.261c-2.153-3.614-5.805-8.654-11.616-13.708c-17.63-15.333-41.088-18.552-57.662-18.552h-5.432
		l3.841,3.841c4.039,4.039,7.304,8.266,9.806,12.606h-93.476l-1.982,3.6h97.337c5.581,11.804,5.632,24.296,0.144,36.111h-54.286
		v26.473l83.779,37.252l-83.779,37.252v26.521h54.286c5.488,11.815,5.437,24.308-0.144,36.111h-99.137l3.6,3.6h93.658
		c-2.502,4.341-5.767,8.567-9.806,12.606l-3.841,3.842h5.432c16.574,0,40.032-3.219,57.662-18.553
		c5.812-5.055,9.463-10.094,11.616-13.709c1.995,3.156,5.505,5.262,9.506,5.262c5.433,0,9.978-3.871,11.023-9h35.948
		c1.001,3.88,4.513,6.75,8.705,6.75s7.704-2.87,8.705-6.75h55.008v-4.5h-55.008c-0.854-3.309-3.53-5.884-6.903-6.569v-35.61
		l-83.778-37.252l83.778-37.252V232.936z M418.835,223.774c0.18-3.562,3.126-6.407,6.732-6.407c3.722,0,6.75,3.028,6.75,6.75
		s-3.028,6.75-6.75,6.75c-3.604,0-6.549-2.841-6.732-6.4V223.774z M352.045,190.48c15.153,0.658,34.447,4.412,49.238,17.154
		c8.173,7.041,11.811,14.169,12.843,16.477c-2.235,4.918-16.494,31.716-62.084,33.646
		C369.986,236.882,369.986,211.356,352.045,190.48z M401.283,403.914c-14.791,12.742-34.085,16.496-49.238,17.154
		c17.941-20.877,17.94-46.402-0.003-67.277c45.59,1.931,59.849,28.729,62.084,33.646
		C413.094,389.745,409.456,396.873,401.283,403.914z M425.567,394.182c-3.606,0-6.553-2.846-6.732-6.408v-0.692
		c0.184-3.56,3.129-6.399,6.732-6.399c3.722,0,6.75,3.027,6.75,6.75C432.317,391.153,429.289,394.182,425.567,394.182z
		 M479.446,345.695v32.917c-3.375,0.684-6.054,3.26-6.907,6.569h-35.948c-1.046-5.129-5.591-9-11.023-9
		c-4.011,0-7.527,2.115-9.52,5.283c-2.171-3.614-5.851-8.666-11.692-13.733c-9.758-8.462-27.667-18.55-57.572-18.55h-5.432
		l3.841,3.841c4.13,4.13,7.445,8.456,9.968,12.9h-48.825v-20.228l86.555-38.069L479.446,345.695z M392.891,303.874l-86.555-38.069
		v-20.18h48.825c-2.523,4.444-5.838,8.771-9.969,12.901l-3.841,3.841h5.432c29.906,0,47.814-10.088,57.572-18.55
		c5.842-5.067,9.521-10.119,11.692-13.733c1.992,3.167,5.509,5.284,9.52,5.284c5.433,0,9.978-3.872,11.023-9h35.948
		c0.854,3.31,3.532,5.885,6.907,6.57v32.868L392.891,303.874z"/>
</g>
<g id="Layer_7" display="none">
	<path display="inline" d="M483.046,232.936c3.373-0.685,6.05-3.26,6.903-6.569h53.747v-4.5h-53.747
		c-1.001-3.88-4.513-6.75-8.705-6.75s-7.704,2.87-8.705,6.75h-35.948c-1.046-5.128-5.591-9-11.023-9
		c-4.001,0-7.511,2.105-9.506,5.261c-2.153-3.614-5.805-8.654-11.616-13.708c-17.63-15.333-41.088-18.552-57.662-18.552h-5.432
		l3.841,3.841c4.039,4.039,7.304,8.266,9.806,12.606h-93.476l-1.982,3.6h97.337c5.581,11.804,5.632,24.296,0.144,36.111h-54.286
		v26.473l83.779,37.252l-83.779,37.252v26.521h54.286c5.488,11.815,5.437,24.308-0.144,36.111h-99.137l3.6,3.6h93.658
		c-2.502,4.341-5.767,8.567-9.806,12.606l-3.841,3.842h5.432c16.574,0,40.032-3.219,57.662-18.553
		c5.812-5.055,9.463-10.094,11.616-13.709c1.995,3.156,5.505,5.262,9.506,5.262c5.433,0,9.978-3.871,11.023-9h35.948
		c1.001,3.88,4.513,6.75,8.705,6.75s7.704-2.87,8.705-6.75h55.008v-4.5h-55.008c-0.854-3.309-3.53-5.884-6.903-6.569v-35.61
		l-83.778-37.252l83.778-37.252V232.936z M418.835,223.774c0.18-3.562,3.126-6.407,6.732-6.407c3.722,0,6.75,3.028,6.75,6.75
		s-3.028,6.75-6.75,6.75c-3.604,0-6.549-2.841-6.732-6.4V223.774z M352.045,190.48c15.153,0.658,34.447,4.412,49.238,17.154
		c8.173,7.041,11.811,14.169,12.843,16.477c-2.235,4.918-16.494,31.716-62.084,33.646
		C369.986,236.882,369.986,211.356,352.045,190.48z M401.283,403.914c-14.791,12.742-34.085,16.496-49.238,17.154
		c17.941-20.877,17.94-46.402-0.003-67.277c45.59,1.931,59.849,28.729,62.084,33.646
		C413.094,389.745,409.456,396.873,401.283,403.914z M425.567,394.182c-3.606,0-6.553-2.846-6.732-6.408v-0.692
		c0.184-3.56,3.129-6.399,6.732-6.399c3.722,0,6.75,3.027,6.75,6.75C432.317,391.153,429.289,394.182,425.567,394.182z
		 M479.446,345.695v32.917c-3.375,0.684-6.054,3.26-6.907,6.569h-35.948c-1.046-5.129-5.591-9-11.023-9
		c-4.011,0-7.527,2.115-9.52,5.283c-2.171-3.614-5.851-8.666-11.692-13.733c-9.758-8.462-27.667-18.55-57.572-18.55h-5.432
		l3.841,3.841c4.13,4.13,7.445,8.456,9.968,12.9h-48.825v-20.228l86.555-38.069L479.446,345.695z M392.891,303.874l-86.555-38.069
		v-20.18h48.825c-2.523,4.444-5.838,8.771-9.969,12.901l-3.841,3.841h5.432c29.906,0,47.814-10.088,57.572-18.55
		c5.842-5.067,9.521-10.119,11.692-13.733c1.992,3.167,5.509,5.284,9.52,5.284c5.433,0,9.978-3.872,11.023-9h35.948
		c0.854,3.31,3.532,5.885,6.907,6.57v32.868L392.891,303.874z"/>
	<path display="inline" d="M483.046,232.936c3.373-0.685,6.05-3.26,6.903-6.569h53.747v-4.5h-53.747
		c-1.001-3.88-4.513-6.75-8.705-6.75s-7.704,2.87-8.705,6.75h-35.948c-1.046-5.128-5.591-9-11.023-9
		c-4.001,0-7.511,2.105-9.506,5.261c-2.153-3.614-5.805-8.654-11.616-13.708c-17.63-15.333-41.088-18.552-57.662-18.552h-5.432
		l3.841,3.841c4.039,4.039,7.304,8.266,9.806,12.606h-93.476l-1.982,3.6h97.337c5.581,11.804,5.632,24.296,0.144,36.111h-54.286
		v26.473l83.779,37.252l-83.779,37.252v26.521h54.286c5.488,11.815,5.437,24.308-0.144,36.111h-99.137l3.6,3.6h93.658
		c-2.502,4.341-5.767,8.567-9.806,12.606l-3.841,3.842h5.432c16.574,0,40.032-3.219,57.662-18.553
		c5.812-5.055,9.463-10.094,11.616-13.709c1.995,3.156,5.505,5.262,9.506,5.262c5.433,0,9.978-3.871,11.023-9h35.948
		c1.001,3.88,4.513,6.75,8.705,6.75s7.704-2.87,8.705-6.75h55.008v-4.5h-55.008c-0.854-3.309-3.53-5.884-6.903-6.569v-35.61
		l-83.778-37.252l83.778-37.252V232.936z M418.835,223.774c0.18-3.562,3.126-6.407,6.732-6.407c3.722,0,6.75,3.028,6.75,6.75
		s-3.028,6.75-6.75,6.75c-3.604,0-6.549-2.841-6.732-6.4V223.774z M352.045,190.48c15.153,0.658,34.447,4.412,49.238,17.154
		c8.173,7.041,11.811,14.169,12.843,16.477c-2.235,4.918-16.494,31.716-62.084,33.646
		C369.986,236.882,369.986,211.356,352.045,190.48z M401.283,403.914c-14.791,12.742-34.085,16.496-49.238,17.154
		c17.941-20.877,17.94-46.402-0.003-67.277c45.59,1.931,59.849,28.729,62.084,33.646
		C413.094,389.745,409.456,396.873,401.283,403.914z M425.567,394.182c-3.606,0-6.553-2.846-6.732-6.408v-0.692
		c0.184-3.56,3.129-6.399,6.732-6.399c3.722,0,6.75,3.027,6.75,6.75C432.317,391.153,429.289,394.182,425.567,394.182z
		 M479.446,345.695v32.917c-3.375,0.684-6.054,3.26-6.907,6.569h-35.948c-1.046-5.129-5.591-9-11.023-9
		c-4.011,0-7.527,2.115-9.52,5.283c-2.171-3.614-5.851-8.666-11.692-13.733c-9.758-8.462-27.667-18.55-57.572-18.55h-5.432
		l3.841,3.841c4.13,4.13,7.445,8.456,9.968,12.9h-48.825v-20.228l86.555-38.069L479.446,345.695z M392.891,303.874l-86.555-38.069
		v-20.18h48.825c-2.523,4.444-5.838,8.771-9.969,12.901l-3.841,3.841h5.432c29.906,0,47.814-10.088,57.572-18.55
		c5.842-5.067,9.521-10.119,11.692-13.733c1.992,3.167,5.509,5.284,9.52,5.284c5.433,0,9.978-3.872,11.023-9h35.948
		c0.854,3.31,3.532,5.885,6.907,6.57v32.868L392.891,303.874z"/>
</g>
</svg>
