<?xml version="1.0" encoding="utf-8"?>
<!-- Generator: Adobe Illustrator 16.1.0, SVG Export Plug-In . SVG Version: 6.00 Build 0)  -->
<!DOCTYPE svg PUBLIC "-//W3C//DTD SVG 1.0//EN" "http://www.w3.org/TR/2001/REC-SVG-20010904/DTD/svg10.dtd">
<svg version="1.0" xmlns="http://www.w3.org/2000/svg" xmlns:xlink="http://www.w3.org/1999/xlink" x="0px" y="0px"
	 width="1705.024px" height="453.6px" viewBox="0 0 1705.024 453.6" enable-background="new 0 0 1705.024 453.6"
	 xml:space="preserve">
<g id="Layer_3_copy_3">
	<g>
		<path fill="#1D437D" stroke="#C4960C" stroke-width="3.6" stroke-miterlimit="10" d="M226.799,57.599
			c-93.297,0-169.2,75.903-169.2,169.2C57.6,320.097,133.502,396,226.799,396C320.097,396,396,320.097,396,226.799
			C396,133.502,320.097,57.599,226.799,57.599z"/>
		<path fill="#C4960C" d="M313.845,153.735c3.373-0.686,6.05-3.261,6.903-6.569h53.747v-4.5h-53.747
			c-1.001-3.88-4.513-6.75-8.705-6.75s-7.704,2.87-8.705,6.75H267.39c-1.046-5.128-5.591-9-11.023-9
			c-4.001,0-7.511,2.105-9.506,5.261c-2.153-3.614-5.805-8.654-11.616-13.708c-17.63-15.334-41.088-18.553-57.662-18.553h-5.432
			l3.841,3.841c4.039,4.039,7.304,8.266,9.806,12.606H92.322l-1.982,3.6h97.337c5.581,11.804,5.632,24.297,0.144,36.111h-54.286
			v26.474l83.779,37.252l-83.779,37.252v26.521h54.286c5.488,11.815,5.437,24.308-0.144,36.111H88.541l3.6,3.6h93.658
			c-2.502,4.341-5.767,8.567-9.806,12.606l-3.841,3.842h5.432c16.574,0,40.032-3.219,57.662-18.553
			c5.812-5.055,9.463-10.094,11.616-13.709c1.995,3.156,5.505,5.262,9.506,5.262c5.433,0,9.978-3.871,11.023-9h35.948
			c1.001,3.88,4.513,6.75,8.705,6.75s7.704-2.87,8.705-6.75h55.008v-4.5h-55.008c-0.854-3.309-3.53-5.884-6.903-6.569v-35.61
			l-83.778-37.252l83.778-37.252V153.735z M249.634,144.573c0.18-3.562,3.126-6.407,6.732-6.407c3.722,0,6.75,3.028,6.75,6.75
			c0,3.723-3.028,6.75-6.75,6.75c-3.604,0-6.549-2.841-6.732-6.399V144.573z M182.845,111.279
			c15.153,0.658,34.447,4.412,49.238,17.154c8.173,7.04,11.811,14.169,12.843,16.477c-2.235,4.918-16.494,31.716-62.084,33.646
			C200.785,157.681,200.786,132.156,182.845,111.279z M232.083,324.713c-14.791,12.742-34.085,16.496-49.238,17.154
			c17.941-20.877,17.94-46.402-0.003-67.277c45.59,1.931,59.849,28.729,62.084,33.646
			C243.893,310.544,240.255,317.672,232.083,324.713z M256.367,314.981c-3.606,0-6.553-2.846-6.732-6.408v-0.692
			c0.184-3.56,3.129-6.399,6.732-6.399c3.722,0,6.75,3.027,6.75,6.75C263.117,311.953,260.088,314.981,256.367,314.981z
			 M310.246,266.495v32.917c-3.375,0.684-6.054,3.26-6.907,6.569H267.39c-1.046-5.129-5.591-9-11.023-9
			c-4.011,0-7.527,2.115-9.52,5.283c-2.171-3.614-5.851-8.666-11.692-13.733c-9.758-8.462-27.667-18.55-57.572-18.55h-5.432
			l3.841,3.841c4.13,4.13,7.445,8.456,9.968,12.9h-48.825v-20.228l86.555-38.069L310.246,266.495z M223.69,224.672l-86.555-38.068
			v-20.181h48.825c-2.523,4.444-5.838,8.771-9.969,12.901l-3.841,3.841h5.432c29.906,0,47.814-10.088,57.572-18.55
			c5.842-5.067,9.521-10.119,11.692-13.733c1.992,3.167,5.509,5.283,9.52,5.283c5.433,0,9.978-3.871,11.023-9h35.948
			c0.854,3.311,3.532,5.886,6.907,6.57v32.868L223.69,224.672z"/>
		<path fill="#C4960C" d="M159.984,351.521l12.444-12.445c1.308-1.308,2.534-2.644,3.676-4.003H90.053l-13.68-13.68h107.982
			c3.281-8.568,3.321-17.46,0.117-26.031h-55.977v-34.835l76.414-33.978l-76.414-33.978v-34.788h55.977
			c3.204-8.571,3.164-17.463-0.117-26.031H81.812l7.532-13.68h86.76c-1.142-1.359-2.368-2.694-3.676-4.002l-12.446-12.445h17.601
			c17.434,0,42.164,3.434,60.97,19.79c3.875,3.369,6.867,6.752,9.119,9.726c2.558-1.623,5.554-2.516,8.695-2.516
			c6.254,0,11.852,3.607,14.564,9h29.119c2.495-4.109,6.996-6.75,11.993-6.75s9.498,2.641,11.993,6.75h55.499v14.58h-55.51
			c-1.261,2.063-3.038,3.777-5.141,4.962v35.404l-76.414,33.978l76.414,33.978v35.453c2.103,1.184,3.88,2.898,5.141,4.961h56.771
			v14.58h-56.76c-2.495,4.109-6.996,6.75-11.993,6.75s-9.498-2.641-11.993-6.75h-29.119c-2.713,5.394-8.311,9-14.564,9
			c-3.142,0-6.138-0.893-8.695-2.516c-2.252,2.973-5.244,6.355-9.119,9.726c-18.806,16.356-43.536,19.79-60.97,19.79H159.984z
			 M193.416,280.626c10.568,17.663,10.575,37.517,0.015,55.183c11.563-1.718,24.794-5.81,35.361-14.914
			c5.667-4.882,8.902-9.774,10.49-12.649C235.54,301.502,223.484,285.043,193.416,280.626z M254.674,308.405
			c0.087,0.868,0.814,1.536,1.692,1.536c0.943,0,1.71-0.767,1.71-1.71s-0.767-1.71-1.71-1.71c-0.877,0-1.604,0.666-1.692,1.531
			V308.405z M300.061,300.941c1.261-2.064,3.04-3.779,5.145-4.964v-26.193l-81.515-35.853l-81.515,35.853v11.898h34.172
			c-1.211-1.462-2.519-2.896-3.919-4.297l-12.446-12.444h17.601c31.459,0,50.468,10.758,60.874,19.782
			c3.897,3.381,6.91,6.774,9.179,9.754c2.564-1.636,5.574-2.536,8.731-2.536c6.254,0,11.852,3.606,14.564,9H300.061z
			 M223.69,219.167l81.515-35.852v-26.146c-2.104-1.185-3.883-2.899-5.145-4.964h-29.13c-2.713,5.394-8.311,9-14.564,9
			c-3.157,0-6.166-0.9-8.731-2.537c-2.269,2.981-5.281,6.374-9.178,9.755c-10.407,9.024-29.416,19.782-60.875,19.782h-17.601
			l12.447-12.444c1.401-1.401,2.708-2.835,3.919-4.298h-34.172v11.852L223.69,219.167z M193.432,117.337
			c10.559,17.666,10.553,37.52-0.016,55.183c30.068-4.417,42.124-20.876,45.867-27.619c-1.588-2.875-4.823-7.769-10.489-12.649
			C218.225,123.147,204.995,119.055,193.432,117.337z M254.674,145.093c0.089,0.866,0.815,1.532,1.692,1.532
			c0.943,0,1.71-0.767,1.71-1.71c0-0.942-0.767-1.71-1.71-1.71c-0.878,0-1.605,0.668-1.692,1.536V145.093z"/>
		<g>
			<path fill="#002D62" d="M226.799,7.2c-121.088,0-219.6,98.512-219.6,219.6c0,121.089,98.512,219.602,219.6,219.602
				c121.089,0,219.602-98.513,219.602-219.602C446.401,105.711,347.888,7.2,226.799,7.2z M226.799,396
				c-93.297,0-169.2-75.903-169.2-169.201c0-93.297,75.903-169.2,169.2-169.2c93.298,0,169.201,75.903,169.201,169.2
				C396,320.097,320.097,396,226.799,396z"/>
			<path fill="#C4960C" d="M226.799,453.601C101.742,453.601,0,351.858,0,226.799C0,101.742,101.742,0,226.799,0
				c125.059,0,226.802,101.742,226.802,226.8C453.601,351.858,351.858,453.601,226.799,453.601z M226.799,14.4
				C109.682,14.4,14.4,109.681,14.4,226.799s95.282,212.401,212.399,212.401c117.118,0,212.401-95.283,212.401-212.401
				S343.917,14.4,226.799,14.4z M226.799,403.201c-97.267,0-176.4-79.134-176.4-176.401s79.133-176.4,176.4-176.4
				c97.268,0,176.401,79.133,176.401,176.4S324.067,403.201,226.799,403.201z M226.799,64.799c-89.327,0-162,72.673-162,162
				c0,89.328,72.672,162.001,162,162.001c89.328,0,162.001-72.673,162.001-162.001C388.8,137.472,316.127,64.799,226.799,64.799z"/>
		</g>
		<g>
			<path fill="#C4960C" d="M573.917,195.121c0-54.721,0-64.801-0.72-76.32c-0.721-12.24-3.601-18-15.481-20.521
				c-2.879-0.72-9-1.08-14.039-1.08c-3.961,0-6.121-0.72-6.121-3.239c0-2.521,2.521-3.24,7.92-3.24c9.721,0,20.16,0.36,29.161,0.36
				c9.36,0.359,17.641,0.72,22.681,0.72c11.52,0,83.16,0,90-0.36c6.84-0.72,12.6-1.439,15.479-2.16
				c1.801-0.359,3.96-1.439,5.761-1.439c1.8,0,2.159,1.439,2.159,3.24c0,2.52-1.8,6.84-2.88,23.399
				c-0.359,3.601-1.08,19.44-1.8,23.76c-0.359,1.801-1.08,3.96-3.6,3.96c-2.521,0-3.24-1.8-3.24-5.039
				c0-2.521-0.36-8.641-2.16-12.961c-2.52-6.479-6.12-10.8-24.12-12.96c-6.12-0.72-43.92-1.439-51.12-1.439
				c-1.8,0-2.52,1.08-2.52,3.6v91.08c0,2.521,0.359,3.96,2.52,3.96c7.92,0,49.32,0,57.601-0.72c8.64-0.72,14.04-1.8,17.28-5.4
				c2.52-2.88,3.96-4.68,5.76-4.68c1.439,0,2.52,0.72,2.52,2.88s-1.439,7.92-2.88,26.28c-0.36,7.2-1.439,21.6-1.439,24.12
				c0,2.88,0,6.84-3.24,6.84c-2.521,0-3.24-1.439-3.24-3.239c-0.36-3.601-0.36-8.28-1.44-12.961c-1.8-7.199-6.84-12.6-20.159-14.04
				c-6.841-0.72-42.48-1.08-51.12-1.08c-1.801,0-2.16,1.44-2.16,3.601v28.44c0,12.24-0.36,45.359,0,55.8
				c0.72,24.84,6.479,30.24,43.2,30.24c9.359,0,24.479,0,33.84-4.32c9.36-4.319,13.68-11.88,16.2-26.64
				c0.72-3.961,1.439-5.4,3.96-5.4c2.88,0,2.88,2.88,2.88,6.48c0,8.279-2.88,32.76-4.68,39.959
				c-2.521,9.361-5.761,9.361-19.44,9.361c-27,0-46.8-0.721-62.28-1.08c-15.479-0.721-26.64-1.08-37.439-1.08
				c-3.961,0-11.881,0-20.521,0.359c-8.281,0-17.641,0.721-24.84,0.721c-4.682,0-7.201-1.08-7.201-3.601c0-1.8,1.441-2.88,5.76-2.88
				c5.4,0,9.721-0.721,12.961-1.439c7.2-1.44,9-9.361,10.44-19.801c1.8-15.12,1.8-43.561,1.8-76.68V195.121z"/>
			<path fill="#C4960C" d="M806.833,328.68c-35.28-30.959-44.641-71.279-44.641-106.2c0-24.479,7.561-66.96,42.12-98.64
				c25.92-23.76,60.121-38.16,113.761-38.16c22.318,0,35.639,1.439,52.199,3.6c13.68,1.801,25.199,5.04,36,6.12
				c3.961,0.36,5.4,2.16,5.4,4.32c0,2.88-1.08,7.2-1.801,19.8c-0.719,11.88-0.359,31.68-1.08,38.88c-0.359,5.4-1.08,8.28-4.32,8.28
				c-2.879,0-3.6-2.88-3.6-7.92c-0.359-11.16-5.039-23.76-14.039-33.12c-11.881-12.6-39.961-22.32-73.08-22.32
				c-31.32,0-51.84,7.92-67.681,22.32c-26.279,24.12-33.119,58.32-33.119,93.24c0,85.681,65.16,128.16,113.4,128.16
				c32.039,0,51.48-3.6,65.881-20.159c6.119-6.841,10.799-17.281,12.238-23.761c1.08-5.76,1.801-7.2,4.682-7.2
				c2.52,0,3.238,2.521,3.238,5.4c0,4.32-4.318,35.641-7.92,47.88c-1.799,6.12-3.238,7.92-9.359,10.44
				c-14.4,5.76-41.76,8.279-64.801,8.279C880.993,367.92,839.592,357.121,806.833,328.68z"/>
			<path fill="#C4960C" d="M1069.628,358.561c-5.76-2.521-6.84-4.32-6.84-12.24c0-19.801,1.439-41.4,1.801-47.16
				c0.359-5.4,1.439-9.359,4.32-9.359c3.238,0,3.6,3.239,3.6,6.119c0,4.68,1.439,12.24,3.24,18.36
				c7.92,26.64,29.16,36.36,51.479,36.36c32.4,0,48.24-21.961,48.24-41.041c0-17.64-5.398-34.199-35.279-57.6l-16.561-12.96
				c-39.6-30.96-53.279-56.16-53.279-85.32c0-39.6,33.119-68.04,83.16-68.04c23.4,0,38.52,3.6,47.879,6.12
				c3.24,0.72,5.041,1.8,5.041,4.319c0,4.681-1.439,15.12-1.439,43.2c0,7.92-1.08,10.801-3.961,10.801c-2.52,0-3.6-2.16-3.6-6.48
				c0-3.24-1.801-14.4-9.359-23.76c-5.4-6.84-15.842-17.641-39.24-17.641c-26.641,0-42.84,15.48-42.84,37.08
				c0,16.561,8.279,29.16,38.158,51.841l10.08,7.56c43.561,32.76,59.041,57.601,59.041,91.8c0,20.881-7.92,45.721-33.84,62.641
				c-18,11.52-38.16,14.76-57.24,14.76C1101.308,367.92,1085.108,365.401,1069.628,358.561z"/>
			<path fill="#C4960C" d="M1298.942,195.121c0-54.721,0-64.801-0.719-76.32c-0.721-12.24-4.32-18.36-12.24-20.16
				c-3.961-1.08-8.641-1.44-12.961-1.44c-3.6,0-5.76-0.72-5.76-3.6c0-2.16,2.881-2.88,8.641-2.88c13.68,0,36.359,1.08,46.799,1.08
				c9,0,30.24-1.08,43.92-1.08c4.682,0,7.561,0.72,7.561,2.88c0,2.88-2.16,3.6-5.76,3.6s-6.48,0.36-10.801,1.08
				c-9.719,1.801-12.6,7.92-13.318,20.521c-0.721,11.52-0.721,21.6-0.721,76.32v63.36c0,34.92,0,63.359,1.439,78.84
				c1.08,9.72,3.6,16.2,14.4,17.641c5.041,0.719,12.961,1.439,18.359,1.439c3.961,0,5.762,1.08,5.762,2.88
				c0,2.521-2.881,3.601-6.842,3.601c-23.76,0-46.439-1.08-56.16-1.08c-8.279,0-30.959,1.08-45.359,1.08
				c-4.68,0-7.199-1.08-7.199-3.601c0-1.8,1.439-2.88,5.76-2.88c5.4,0,9.721-0.721,12.959-1.439c7.201-1.44,9.361-7.561,10.441-18
				c1.799-15.121,1.799-43.561,1.799-78.48V195.121z"/>
			<path fill="#C4960C" d="M1676.585,338.76c0,9.721-0.361,10.44-4.68,12.961c-23.4,12.24-58.682,16.199-86.762,16.199
				c-88.199,0-166.32-41.76-166.32-141.12c0-57.6,29.881-97.92,62.641-117.72c34.561-20.881,66.6-23.4,96.84-23.4
				c24.84,0,56.521,4.32,63.721,5.76c7.561,1.44,20.16,3.601,28.439,3.96c4.32,0.36,5.041,1.8,5.041,4.32
				c0,3.96-2.52,14.04-2.52,59.04c0,5.76-1.08,7.56-3.961,7.56c-2.52,0-3.24-1.8-3.6-4.68c-1.08-8.28-2.881-19.8-12.24-29.88
				c-10.801-11.521-39.6-28.08-80.281-28.08c-19.799,0-46.08,1.44-71.279,22.32c-20.16,16.92-33.119,43.92-33.119,88.2
				c0,77.399,49.318,135.36,125.279,135.36c9.359,0,21.961,0,30.6-3.961c5.4-2.52,6.84-7.199,6.84-13.319v-33.84
				c0-18.001,0-31.681-0.359-42.48c-0.359-12.24-3.6-18-15.48-20.52c-2.879-0.721-9-1.08-14.039-1.08c-3.24,0-5.4-0.721-5.4-2.881
				c0-2.879,2.52-3.6,7.561-3.6c18.719,0,41.398,1.08,52.199,1.08c11.16,0,30.24-1.08,42.121-1.08c4.68,0,7.199,0.721,7.199,3.6
				c0,2.16-2.16,2.881-4.68,2.881c-2.881,0-5.4,0.359-9.721,1.08c-9.719,1.8-13.32,7.92-13.68,20.52
				c-0.359,10.8-0.359,25.2-0.359,43.2V338.76z"/>
		</g>
	</g>
</g>
<g id="Layer_7" display="none">
	<path display="inline" d="M939.559,153.736c3.373-0.685,6.05-3.26,6.903-6.569h53.747v-4.5h-53.747
		c-1.001-3.88-4.513-6.75-8.705-6.75s-7.704,2.87-8.705,6.75h-35.948c-1.046-5.128-5.591-9-11.023-9
		c-4.001,0-7.511,2.105-9.506,5.261c-2.153-3.614-5.805-8.654-11.616-13.708c-17.63-15.333-41.088-18.552-57.662-18.552h-5.432
		l3.841,3.841c4.039,4.039,7.304,8.266,9.806,12.606h-93.476l-1.982,3.6h97.337c5.581,11.804,5.632,24.296,0.144,36.111h-54.286
		v26.473l83.779,37.252l-83.779,37.252v26.521h54.286c5.488,11.815,5.437,24.308-0.144,36.111h-99.137l3.6,3.6h93.658
		c-2.502,4.341-5.767,8.567-9.806,12.606l-3.841,3.842h5.432c16.574,0,40.032-3.219,57.662-18.553
		c5.812-5.055,9.463-10.094,11.616-13.709c1.995,3.156,5.505,5.262,9.506,5.262c5.433,0,9.978-3.871,11.023-9h35.948
		c1.001,3.88,4.513,6.75,8.705,6.75s7.704-2.87,8.705-6.75h55.008v-4.5h-55.008c-0.854-3.309-3.53-5.884-6.903-6.569v-35.61
		L855.78,226.55l83.778-37.252V153.736z M875.348,144.574c0.18-3.562,3.126-6.407,6.732-6.407c3.722,0,6.75,3.028,6.75,6.75
		s-3.028,6.75-6.75,6.75c-3.604,0-6.549-2.841-6.732-6.4V144.574z M808.558,111.28c15.153,0.658,34.447,4.412,49.238,17.154
		c8.173,7.041,11.811,14.169,12.843,16.477c-2.235,4.918-16.494,31.716-62.084,33.646
		C826.499,157.682,826.499,132.157,808.558,111.28z M857.796,324.714c-14.791,12.742-34.085,16.496-49.238,17.154
		c17.941-20.877,17.94-46.402-0.003-67.277c45.59,1.931,59.849,28.729,62.084,33.646
		C869.606,310.545,865.969,317.673,857.796,324.714z M882.08,314.982c-3.606,0-6.553-2.846-6.732-6.408v-0.692
		c0.184-3.56,3.129-6.399,6.732-6.399c3.722,0,6.75,3.027,6.75,6.75C888.83,311.954,885.802,314.982,882.08,314.982z
		 M935.959,266.496v32.917c-3.375,0.684-6.054,3.26-6.907,6.569h-35.948c-1.046-5.129-5.591-9-11.023-9
		c-4.011,0-7.527,2.115-9.52,5.283c-2.171-3.614-5.851-8.666-11.692-13.733c-9.758-8.462-27.667-18.55-57.572-18.55h-5.432
		l3.841,3.841c4.13,4.13,7.445,8.456,9.968,12.9h-48.825v-20.228l86.555-38.069L935.959,266.496z M849.404,224.674l-86.555-38.069
		v-20.18h48.825c-2.523,4.444-5.838,8.771-9.969,12.901l-3.841,3.841h5.432c29.906,0,47.814-10.088,57.572-18.55
		c5.842-5.067,9.521-10.119,11.692-13.733c1.992,3.167,5.509,5.284,9.52,5.284c5.433,0,9.978-3.872,11.023-9h35.948
		c0.854,3.31,3.532,5.885,6.907,6.57v32.868L849.404,224.674z"/>
	<path display="inline" d="M939.559,153.736c3.373-0.685,6.05-3.26,6.903-6.569h53.747v-4.5h-53.747
		c-1.001-3.88-4.513-6.75-8.705-6.75s-7.704,2.87-8.705,6.75h-35.948c-1.046-5.128-5.591-9-11.023-9
		c-4.001,0-7.511,2.105-9.506,5.261c-2.153-3.614-5.805-8.654-11.616-13.708c-17.63-15.333-41.088-18.552-57.662-18.552h-5.432
		l3.841,3.841c4.039,4.039,7.304,8.266,9.806,12.606h-93.476l-1.982,3.6h97.337c5.581,11.804,5.632,24.296,0.144,36.111h-54.286
		v26.473l83.779,37.252l-83.779,37.252v26.521h54.286c5.488,11.815,5.437,24.308-0.144,36.111h-99.137l3.6,3.6h93.658
		c-2.502,4.341-5.767,8.567-9.806,12.606l-3.841,3.842h5.432c16.574,0,40.032-3.219,57.662-18.553
		c5.812-5.055,9.463-10.094,11.616-13.709c1.995,3.156,5.505,5.262,9.506,5.262c5.433,0,9.978-3.871,11.023-9h35.948
		c1.001,3.88,4.513,6.75,8.705,6.75s7.704-2.87,8.705-6.75h55.008v-4.5h-55.008c-0.854-3.309-3.53-5.884-6.903-6.569v-35.61
		L855.78,226.55l83.778-37.252V153.736z M875.348,144.574c0.18-3.562,3.126-6.407,6.732-6.407c3.722,0,6.75,3.028,6.75,6.75
		s-3.028,6.75-6.75,6.75c-3.604,0-6.549-2.841-6.732-6.4V144.574z M808.558,111.28c15.153,0.658,34.447,4.412,49.238,17.154
		c8.173,7.041,11.811,14.169,12.843,16.477c-2.235,4.918-16.494,31.716-62.084,33.646
		C826.499,157.682,826.499,132.157,808.558,111.28z M857.796,324.714c-14.791,12.742-34.085,16.496-49.238,17.154
		c17.941-20.877,17.94-46.402-0.003-67.277c45.59,1.931,59.849,28.729,62.084,33.646
		C869.606,310.545,865.969,317.673,857.796,324.714z M882.08,314.982c-3.606,0-6.553-2.846-6.732-6.408v-0.692
		c0.184-3.56,3.129-6.399,6.732-6.399c3.722,0,6.75,3.027,6.75,6.75C888.83,311.954,885.802,314.982,882.08,314.982z
		 M935.959,266.496v32.917c-3.375,0.684-6.054,3.26-6.907,6.569h-35.948c-1.046-5.129-5.591-9-11.023-9
		c-4.011,0-7.527,2.115-9.52,5.283c-2.171-3.614-5.851-8.666-11.692-13.733c-9.758-8.462-27.667-18.55-57.572-18.55h-5.432
		l3.841,3.841c4.13,4.13,7.445,8.456,9.968,12.9h-48.825v-20.228l86.555-38.069L935.959,266.496z M849.404,224.674l-86.555-38.069
		v-20.18h48.825c-2.523,4.444-5.838,8.771-9.969,12.901l-3.841,3.841h5.432c29.906,0,47.814-10.088,57.572-18.55
		c5.842-5.067,9.521-10.119,11.692-13.733c1.992,3.167,5.509,5.284,9.52,5.284c5.433,0,9.978-3.872,11.023-9h35.948
		c0.854,3.31,3.532,5.885,6.907,6.57v32.868L849.404,224.674z"/>
</g>
</svg>
