<?xml version="1.0" encoding="utf-8"?>
<!-- Generator: Adobe Illustrator 16.1.0, SVG Export Plug-In . SVG Version: 6.00 Build 0)  -->
<!DOCTYPE svg PUBLIC "-//W3C//DTD SVG 1.0//EN" "http://www.w3.org/TR/2001/REC-SVG-20010904/DTD/svg10.dtd">
<svg version="1.0" xmlns="http://www.w3.org/2000/svg" xmlns:xlink="http://www.w3.org/1999/xlink" x="0px" y="0px" width="453.6px"
	 height="453.6px" viewBox="0 0 453.6 453.6" enable-background="new 0 0 453.6 453.6" xml:space="preserve">
<g id="Layer_3_copy_3">
	<g>
		<path fill="#1D437D" stroke="#C4960C" stroke-width="3.6" stroke-miterlimit="10" d="M226.799,57.599
			c-93.297,0-169.2,75.903-169.2,169.2c0,93.298,75.903,169.201,169.2,169.201C320.097,396,396,320.097,396,226.799
			C396,133.502,320.097,57.599,226.799,57.599z"/>
		<path fill="#C4960C" d="M313.845,153.735c3.373-0.686,6.05-3.261,6.903-6.569h53.747v-4.5h-53.747
			c-1.001-3.88-4.513-6.75-8.705-6.75s-7.704,2.87-8.705,6.75H267.39c-1.046-5.128-5.591-9-11.023-9
			c-4.001,0-7.511,2.105-9.506,5.261c-2.153-3.614-5.805-8.654-11.616-13.708c-17.631-15.334-41.088-18.553-57.662-18.553h-5.433
			l3.842,3.841c4.039,4.039,7.304,8.266,9.806,12.606H92.322l-1.981,3.6h97.337c5.581,11.804,5.633,24.297,0.145,36.111h-54.286
			v26.474l83.778,37.252l-83.778,37.252v26.521h54.286c5.488,11.815,5.437,24.308-0.145,36.111H88.541l3.6,3.6h93.657
			c-2.502,4.341-5.767,8.567-9.806,12.606l-3.842,3.842h5.433c16.574,0,40.031-3.219,57.662-18.553
			c5.812-5.055,9.463-10.094,11.616-13.709c1.995,3.156,5.505,5.262,9.506,5.262c5.433,0,9.978-3.871,11.023-9h35.948
			c1.001,3.88,4.513,6.75,8.705,6.75s7.704-2.87,8.705-6.75h55.008v-4.5h-55.008c-0.854-3.309-3.53-5.884-6.903-6.569v-35.61
			l-83.778-37.252l83.778-37.252V153.735z M249.634,144.573c0.18-3.562,3.126-6.407,6.732-6.407c3.722,0,6.75,3.028,6.75,6.75
			c0,3.723-3.028,6.75-6.75,6.75c-3.604,0-6.549-2.841-6.732-6.399V144.573z M182.844,111.279
			c15.153,0.658,34.447,4.412,49.238,17.154c8.173,7.04,11.811,14.169,12.843,16.477c-2.235,4.918-16.494,31.716-62.084,33.646
			C200.785,157.681,200.786,132.156,182.844,111.279z M232.083,324.713c-14.791,12.742-34.085,16.496-49.238,17.154
			c17.941-20.877,17.94-46.402-0.003-67.277c45.59,1.931,59.849,28.729,62.084,33.646
			C243.893,310.544,240.255,317.672,232.083,324.713z M256.367,314.981c-3.606,0-6.553-2.846-6.732-6.408v-0.692
			c0.184-3.56,3.129-6.399,6.732-6.399c3.722,0,6.75,3.027,6.75,6.75C263.117,311.953,260.088,314.981,256.367,314.981z
			 M310.246,266.495v32.917c-3.375,0.684-6.054,3.26-6.907,6.569H267.39c-1.046-5.129-5.591-9-11.023-9
			c-4.011,0-7.527,2.115-9.52,5.283c-2.171-3.614-5.851-8.666-11.692-13.733c-9.758-8.462-27.667-18.55-57.572-18.55h-5.433
			l3.842,3.841c4.13,4.13,7.445,8.456,9.968,12.9h-48.824v-20.228l86.555-38.069L310.246,266.495z M223.69,224.672l-86.555-38.068
			v-20.181h48.825c-2.523,4.444-5.839,8.771-9.969,12.901l-3.842,3.841h5.433c29.905,0,47.814-10.088,57.572-18.55
			c5.842-5.067,9.521-10.119,11.692-13.733c1.992,3.167,5.509,5.283,9.52,5.283c5.433,0,9.978-3.871,11.023-9h35.948
			c0.854,3.311,3.532,5.886,6.907,6.57v32.868L223.69,224.672z"/>
		<path fill="#C4960C" d="M159.984,351.521l12.443-12.445c1.308-1.308,2.534-2.644,3.676-4.003H90.052l-13.68-13.68h107.982
			c3.281-8.568,3.321-17.46,0.117-26.031h-55.977v-34.835l76.414-33.978l-76.414-33.978v-34.788h55.977
			c3.204-8.571,3.164-17.463-0.117-26.031H81.812l7.531-13.68h86.76c-1.142-1.359-2.368-2.694-3.676-4.002l-12.446-12.445h17.602
			c17.434,0,42.163,3.434,60.97,19.79c3.875,3.369,6.867,6.752,9.119,9.726c2.558-1.623,5.554-2.516,8.695-2.516
			c6.254,0,11.852,3.607,14.564,9h29.119c2.495-4.109,6.996-6.75,11.993-6.75s9.498,2.641,11.993,6.75h55.499v14.58h-55.51
			c-1.261,2.063-3.038,3.777-5.141,4.962v35.404l-76.414,33.978l76.414,33.978v35.453c2.103,1.184,3.88,2.898,5.141,4.961h56.771
			v14.58h-56.76c-2.495,4.109-6.996,6.75-11.993,6.75s-9.498-2.641-11.993-6.75h-29.119c-2.713,5.394-8.311,9-14.564,9
			c-3.142,0-6.138-0.893-8.695-2.516c-2.252,2.973-5.244,6.355-9.119,9.726c-18.807,16.356-43.536,19.79-60.97,19.79H159.984z
			 M193.416,280.626c10.568,17.663,10.575,37.517,0.016,55.183c11.563-1.718,24.794-5.81,35.361-14.914
			c5.667-4.882,8.902-9.774,10.49-12.649C235.54,301.502,223.484,285.043,193.416,280.626z M254.674,308.405
			c0.087,0.868,0.814,1.536,1.692,1.536c0.943,0,1.71-0.767,1.71-1.71s-0.767-1.71-1.71-1.71c-0.877,0-1.604,0.666-1.692,1.531
			V308.405z M300.061,300.941c1.261-2.064,3.04-3.779,5.145-4.964v-26.193l-81.516-35.853l-81.515,35.853v11.898h34.172
			c-1.211-1.462-2.519-2.896-3.92-4.297l-12.446-12.444h17.602c31.459,0,50.468,10.758,60.874,19.782
			c3.897,3.381,6.91,6.774,9.179,9.754c2.564-1.636,5.574-2.536,8.731-2.536c6.254,0,11.852,3.606,14.564,9H300.061z
			 M223.69,219.167l81.516-35.852v-26.146c-2.104-1.185-3.883-2.899-5.145-4.964h-29.13c-2.713,5.394-8.311,9-14.564,9
			c-3.157,0-6.166-0.9-8.731-2.537c-2.269,2.981-5.281,6.374-9.178,9.755c-10.407,9.024-29.416,19.782-60.875,19.782h-17.602
			l12.447-12.444c1.4-1.401,2.708-2.835,3.919-4.298h-34.172v11.852L223.69,219.167z M193.431,117.337
			c10.56,17.666,10.553,37.52-0.016,55.183c30.068-4.417,42.124-20.876,45.867-27.619c-1.588-2.875-4.823-7.769-10.489-12.649
			C218.225,123.147,204.995,119.055,193.431,117.337z M254.674,145.093c0.089,0.866,0.815,1.532,1.692,1.532
			c0.943,0,1.71-0.767,1.71-1.71c0-0.942-0.767-1.71-1.71-1.71c-0.878,0-1.605,0.668-1.692,1.536V145.093z"/>
		<path fill="#002D62" d="M226.799,7.2c-121.088,0-219.6,98.512-219.6,219.6c0,121.089,98.512,219.602,219.6,219.602
			c121.089,0,219.602-98.513,219.602-219.602C446.401,105.711,347.888,7.2,226.799,7.2z M226.799,396
			c-93.297,0-169.2-75.903-169.2-169.201c0-93.297,75.903-169.2,169.2-169.2c93.298,0,169.201,75.903,169.201,169.2
			C396,320.097,320.097,396,226.799,396z"/>
		<path fill="#C4960C" d="M226.799,453.601C101.742,453.601,0,351.858,0,226.799C0,101.742,101.742,0,226.799,0
			c125.059,0,226.802,101.742,226.802,226.8C453.601,351.858,351.858,453.601,226.799,453.601z M226.799,14.4
			C109.681,14.4,14.4,109.681,14.4,226.799s95.281,212.401,212.399,212.401s212.401-95.283,212.401-212.401
			S343.917,14.4,226.799,14.4z M226.799,403.201c-97.268,0-176.4-79.134-176.4-176.401s79.133-176.4,176.4-176.4
			s176.401,79.133,176.401,176.4S324.067,403.201,226.799,403.201z M226.799,64.799c-89.327,0-162,72.673-162,162
			c0,89.328,72.673,162.001,162,162.001c89.328,0,162.001-72.673,162.001-162.001C388.8,137.472,316.127,64.799,226.799,64.799z"/>
	</g>
</g>
<g id="Layer_7" display="none">
	<path display="inline" d="M313.846,153.736c3.373-0.685,6.05-3.26,6.903-6.569h53.747v-4.5H320.75
		c-1.001-3.88-4.513-6.75-8.705-6.75s-7.704,2.87-8.705,6.75h-35.948c-1.046-5.128-5.591-9-11.023-9
		c-4.001,0-7.511,2.105-9.506,5.261c-2.153-3.614-5.805-8.654-11.616-13.708c-17.63-15.333-41.088-18.552-57.662-18.552h-5.432
		l3.841,3.841c4.039,4.039,7.304,8.266,9.806,12.606H92.323l-1.982,3.6h97.337c5.581,11.804,5.632,24.296,0.144,36.111h-54.286
		v26.473l83.779,37.252l-83.779,37.252v26.521h54.286c5.488,11.815,5.437,24.308-0.144,36.111H88.542l3.6,3.6h93.658
		c-2.502,4.341-5.767,8.567-9.806,12.606l-3.841,3.842h5.432c16.574,0,40.032-3.219,57.662-18.553
		c5.812-5.055,9.463-10.094,11.616-13.709c1.995,3.156,5.505,5.262,9.506,5.262c5.433,0,9.978-3.871,11.023-9h35.948
		c1.001,3.88,4.513,6.75,8.705,6.75s7.704-2.87,8.705-6.75h55.008v-4.5H320.75c-0.854-3.309-3.53-5.884-6.903-6.569v-35.61
		l-83.778-37.252l83.778-37.252V153.736z M249.635,144.574c0.18-3.562,3.126-6.407,6.732-6.407c3.722,0,6.75,3.028,6.75,6.75
		s-3.028,6.75-6.75,6.75c-3.604,0-6.549-2.841-6.732-6.4V144.574z M182.846,111.28c15.153,0.658,34.447,4.412,49.238,17.154
		c8.173,7.041,11.811,14.169,12.843,16.477c-2.235,4.918-16.494,31.716-62.084,33.646
		C200.786,157.682,200.787,132.157,182.846,111.28z M232.083,324.714c-14.791,12.742-34.085,16.496-49.238,17.154
		c17.941-20.877,17.94-46.402-0.003-67.277c45.59,1.931,59.849,28.729,62.084,33.646
		C243.894,310.545,240.256,317.673,232.083,324.714z M256.368,314.982c-3.606,0-6.553-2.846-6.732-6.408v-0.692
		c0.184-3.56,3.129-6.399,6.732-6.399c3.722,0,6.75,3.027,6.75,6.75C263.118,311.954,260.089,314.982,256.368,314.982z
		 M310.247,266.496v32.917c-3.375,0.684-6.054,3.26-6.907,6.569h-35.948c-1.046-5.129-5.591-9-11.023-9
		c-4.011,0-7.527,2.115-9.52,5.283c-2.171-3.614-5.851-8.666-11.692-13.733c-9.758-8.462-27.667-18.55-57.572-18.55h-5.432
		l3.841,3.841c4.13,4.13,7.445,8.456,9.968,12.9h-48.825v-20.228l86.555-38.069L310.247,266.496z M223.691,224.674l-86.555-38.069
		v-20.18h48.825c-2.523,4.444-5.838,8.771-9.969,12.901l-3.841,3.841h5.432c29.906,0,47.814-10.088,57.572-18.55
		c5.842-5.067,9.521-10.119,11.692-13.733c1.992,3.167,5.509,5.284,9.52,5.284c5.433,0,9.978-3.872,11.023-9h35.948
		c0.854,3.31,3.532,5.885,6.907,6.57v32.868L223.691,224.674z"/>
	<path display="inline" d="M313.846,153.736c3.373-0.685,6.05-3.26,6.903-6.569h53.747v-4.5H320.75
		c-1.001-3.88-4.513-6.75-8.705-6.75s-7.704,2.87-8.705,6.75h-35.948c-1.046-5.128-5.591-9-11.023-9
		c-4.001,0-7.511,2.105-9.506,5.261c-2.153-3.614-5.805-8.654-11.616-13.708c-17.63-15.333-41.088-18.552-57.662-18.552h-5.432
		l3.841,3.841c4.039,4.039,7.304,8.266,9.806,12.606H92.323l-1.982,3.6h97.337c5.581,11.804,5.632,24.296,0.144,36.111h-54.286
		v26.473l83.779,37.252l-83.779,37.252v26.521h54.286c5.488,11.815,5.437,24.308-0.144,36.111H88.542l3.6,3.6h93.658
		c-2.502,4.341-5.767,8.567-9.806,12.606l-3.841,3.842h5.432c16.574,0,40.032-3.219,57.662-18.553
		c5.812-5.055,9.463-10.094,11.616-13.709c1.995,3.156,5.505,5.262,9.506,5.262c5.433,0,9.978-3.871,11.023-9h35.948
		c1.001,3.88,4.513,6.75,8.705,6.75s7.704-2.87,8.705-6.75h55.008v-4.5H320.75c-0.854-3.309-3.53-5.884-6.903-6.569v-35.61
		l-83.778-37.252l83.778-37.252V153.736z M249.635,144.574c0.18-3.562,3.126-6.407,6.732-6.407c3.722,0,6.75,3.028,6.75,6.75
		s-3.028,6.75-6.75,6.75c-3.604,0-6.549-2.841-6.732-6.4V144.574z M182.846,111.28c15.153,0.658,34.447,4.412,49.238,17.154
		c8.173,7.041,11.811,14.169,12.843,16.477c-2.235,4.918-16.494,31.716-62.084,33.646
		C200.786,157.682,200.787,132.157,182.846,111.28z M232.083,324.714c-14.791,12.742-34.085,16.496-49.238,17.154
		c17.941-20.877,17.94-46.402-0.003-67.277c45.59,1.931,59.849,28.729,62.084,33.646
		C243.894,310.545,240.256,317.673,232.083,324.714z M256.368,314.982c-3.606,0-6.553-2.846-6.732-6.408v-0.692
		c0.184-3.56,3.129-6.399,6.732-6.399c3.722,0,6.75,3.027,6.75,6.75C263.118,311.954,260.089,314.982,256.368,314.982z
		 M310.247,266.496v32.917c-3.375,0.684-6.054,3.26-6.907,6.569h-35.948c-1.046-5.129-5.591-9-11.023-9
		c-4.011,0-7.527,2.115-9.52,5.283c-2.171-3.614-5.851-8.666-11.692-13.733c-9.758-8.462-27.667-18.55-57.572-18.55h-5.432
		l3.841,3.841c4.13,4.13,7.445,8.456,9.968,12.9h-48.825v-20.228l86.555-38.069L310.247,266.496z M223.691,224.674l-86.555-38.069
		v-20.18h48.825c-2.523,4.444-5.838,8.771-9.969,12.901l-3.841,3.841h5.432c29.906,0,47.814-10.088,57.572-18.55
		c5.842-5.067,9.521-10.119,11.692-13.733c1.992,3.167,5.509,5.284,9.52,5.284c5.433,0,9.978-3.872,11.023-9h35.948
		c0.854,3.31,3.532,5.885,6.907,6.57v32.868L223.691,224.674z"/>
</g>
</svg>
